<svg id="Layer_1" xmlns="http://www.w3.org/2000/svg" viewBox="0 0 190 64"><style>.st1{fill:#fff}.st2{fill:#960a9d}</style><path fill="none" d="M0 0h190v64H0z"/><path class="st1" d="M9.1 8.9h6.7v.5c0 1.1-.1 2.2-.4 3.2-.3.9-.8 1.7-1.4 2.4-1.4 1.7-3.5 2.6-5.7 2.5-2.2 0-4.3-.9-5.8-2.5-3.3-3.3-3.2-8.7.1-12C5.1.7 8.8.1 12 1.6c1.2.6 2.2 1.5 3.1 2.5l-1.7 1.7c-1.1-1.6-2.9-2.6-4.9-2.7-1.6 0-3.2.6-4.3 1.8C3 6 2.4 7.6 2.5 9.2c0 3.3 2.6 6 5.9 6.1 1.2 0 2.3-.4 3.2-1.2.9-.7 1.5-1.8 1.6-2.9h-4V8.9zM24.4 10.4l5 6.9h-3l-4.6-6.6h-.4v6.6H19V1.1h2.9c2.1 0 3.7.4 4.6 1.2 1 .9 1.6 2.2 1.6 3.5 0 1.1-.3 2.1-1 3-.8.8-1.7 1.4-2.7 1.6zm-3.1-1.9h.8c2.3 0 3.5-.9 3.5-2.7 0-1.7-1.1-2.5-3.4-2.5h-.9v5.2zM41.3 13.4h-6.9l-1.8 3.9H30L38 .1l7.7 17.2H43l-1.7-3.9zm-1-2.3l-2.4-5.5-2.5 5.5h4.9zM50.2 10.7v6.6h-2.4V1.1h2.8c1 0 2.1.1 3.1.3.7.2 1.3.6 1.8 1.1.9.9 1.4 2.1 1.4 3.4.1 1.3-.5 2.6-1.5 3.5-1.1.9-2.6 1.4-4 1.3h-1.2zm0-2.2h.9c2.2 0 3.4-.9 3.4-2.6 0-1.7-1.2-2.5-3.5-2.5h-.8v5.1zM68.3 3.4h-6.5v3.9h6.3v2.3h-6.3V15h6.5v2.3h-8.9V1.1h8.9v2.3zM94.2 3.4v13.9h-2.4V3.4H88V1.1h9.9v2.3h-3.7zM99.3 9.1c0-2.2.9-4.4 2.5-5.9 1.6-1.6 3.7-2.5 6-2.5 4.6 0 8.4 3.8 8.4 8.4 0 2.2-.9 4.4-2.5 5.9-3.2 3.2-8.3 3.3-11.7.3-1.8-1.5-2.8-3.8-2.7-6.2zm2.5.1c-.1 1.7.6 3.3 1.8 4.4 2.3 2.3 6.1 2.3 8.4 0 2.3-2.4 2.3-6.2 0-8.7-2.4-2.3-6.2-2.3-8.5 0-1.2 1.1-1.8 2.6-1.7 4.3zM120.1 1.1l4.2 10.8L128.7.3l4.2 11.6 4.5-10.8h2.7l-7.2 17.2-4.2-11.5-4.3 11.5-6.9-17.2h2.6zM142.1 17.3V0l11.8 12.4V1.1h2.4v17.2L144.5 6v11.3h-2.4z" transform="translate(16.842 13)"/><path class="st2" d="M78.2 8.7s-2.6 4.7-2.6 6.1c0 1.4 1.1 2.6 2.6 2.6s2.6-1.1 2.6-2.6c-.1-1.4-2.6-6.1-2.6-6.1" transform="translate(16.842 13)"/><path class="st1" d="M65.9 32.9l.6 1.4 1.6.1c.1 0 .1.1.1.1v.1l-1.2 1 .4 1.5c0 .1 0 .1-.1.1h-.1l-1.3-.8-1.3.8h-.2v-.1l.4-1.5-1.2-1c-.1 0-.1-.1 0-.2h.1l1.6-.1.6-1.4c-.2-.1-.2-.1 0 0-.1-.1-.1 0 0 0zM90.7 32.9l.6 1.4 1.6.1c.1 0 .1.1.1.1v.1l-1.2 1 .4 1.5c0 .1 0 .1-.1.1H92l-1.3-.8-1.3.8h-.2v-.1l.4-1.5-1.2-1c-.1 0-.1-.1 0-.2h.1l1.6-.1.6-1.4c-.2-.1-.1-.1 0 0-.1-.1 0 0 0 0zM82.4 32.9l.6 1.4 1.6.1c.1 0 .1.1.1.1v.1l-1.2 1 .4 1.5c0 .1 0 .1-.1.1h-.1l-1.3-.8-1.3.8h-.2v-.1l.4-1.5-1.2-1c-.1 0-.1-.1 0-.2h.1l1.6-.1.6-1.4c-.2-.1-.1-.1 0 0 0-.1 0 0 0 0zM74.1 32.9l.6 1.4 1.6.1c.1 0 .1.1.1.1v.1l-1.2 1 .4 1.5c0 .1 0 .1-.1.1h-.1l-1.4-.6-1.3.8h-.2v-.1l.4-1.5-1.2-1c-.1 0-.1-.1 0-.2h.1l1.6-.1.6-1.4c-.1-.3 0-.3.1-.2 0-.1 0 0 0 0z" transform="translate(16.842 13)"/><path class="st2" d="M60.6 25.3h3.7v-3.4h1.3v8.6h-1.3v-4h-3.7v4h-1.3v-8.6h1.3v3.4zM68.3 26.2c0-1.2.5-2.3 1.3-3.1.8-.9 2-1.3 3.2-1.3 2.5 0 4.5 2 4.5 4.5 0 1.2-.5 2.3-1.3 3.2-1.7 1.7-4.4 1.7-6.2.1-1-.9-1.5-2.1-1.5-3.4zm1.4 0c0 .9.3 1.7 1 2.4 1.2 1.2 3.3 1.2 4.5 0 1.2-1.3 1.2-3.3 0-4.6-1.3-1.3-3.3-1.3-4.5 0-.7.5-1.1 1.3-1 2.2zM82.4 23.1v7.4h-1.3v-7.4h-2v-1.2h5.3v1.2h-2zM91.4 23.1h-3.5v2.1h3.4v1.2h-3.4v2.9h3.5v1.2h-4.8v-8.6h4.8v1.2zM95.4 21.9v7.4h2.5v1.2h-3.8v-8.6h1.3z" transform="translate(16.842 13)"/></svg>