<?xml version="1.0" encoding="utf-8"?>
<!-- Generator: Adobe Illustrator 23.0.1, SVG Export Plug-In . SVG Version: 6.00 Build 0)  -->
<svg version="1.1" id="Layer_1" xmlns="http://www.w3.org/2000/svg" xmlns:xlink="http://www.w3.org/1999/xlink" x="0px" y="0px"
	 viewBox="0 0 32 32" style="enable-background:new 0 0 32 32;" xml:space="preserve">
<g>
	<g>
		<g>
			<path d="M31.7,26.5C31.7,26.5,31.7,26.5,31.7,26.5c-2.1-4.4-5.7-10.6-8.9-16c-1.6-2.9-3.2-5.6-4.3-7.6C18,1.9,17,1.3,16,1.3
				s-2,0.6-2.5,1.5c-1.1,2.1-2.7,4.8-4.3,7.6C6,16,2.4,22.2,0.3,26.5C0.1,26.9,0,27.4,0,27.8c0,1.6,1.3,2.9,2.9,2.9l13.1,0l13.1,0
				c1.6,0,2.9-1.3,2.9-2.9C32,27.4,31.9,26.9,31.7,26.5z M29.1,29.3H2.9c-0.8,0-1.5-0.7-1.5-1.5c0-0.2,0.1-0.5,0.2-0.7
				c2.1-4.3,5.7-10.5,8.8-15.9c1.7-2.9,3.2-5.6,4.3-7.6c0.6-1.1,2.1-1.1,2.7,0c1.1,2.1,2.7,4.8,4.3,7.6c3.1,5.4,6.7,11.6,8.8,16
				c0.1,0.2,0.2,0.4,0.2,0.7C30.7,28.6,30,29.3,29.1,29.3z"/>
			<path d="M16,8c-0.4,0-0.7,0.3-0.7,0.7V22c0,0.4,0.3,0.7,0.7,0.7c0.4,0,0.7-0.3,0.7-0.7V8.7C16.7,8.3,16.4,8,16,8z"/>
			<circle cx="16" cy="26" r="0.7"/>
		</g>
	</g>
</g>
</svg>
